<svg width="1440" height="30" viewBox="0 0 1440 30" fill="none" xmlns="http://www.w3.org/2000/svg">
<path d="M1418.57 14.7285C1418.57 6.6359 1425.23 0 1433.18 0C1441.3 0 1447.96 6.6359 1447.96 14.7285C1447.96 22.8211 1441.3 29.2952 1433.18 29.2952C1425.07 29.4571 1418.57 22.8211 1418.57 14.7285Z" fill="#4C6071"/>
<path d="M1339.67 14.7285C1339.67 9.38742 1344.06 5.01741 1349.41 5.01741C1354.77 5.01741 1359.15 9.38742 1359.15 14.7285C1359.15 20.0697 1354.77 24.4397 1349.41 24.4397C1344.06 24.4397 1339.67 20.0697 1339.67 14.7285Z" fill="#4C6071"/>
<path d="M1254.44 14.7285C1254.44 8.57808 1259.47 3.56071 1265.64 3.56071C1271.81 3.56071 1276.85 8.57808 1276.85 14.7285C1276.85 20.8788 1271.81 25.8963 1265.64 25.8963C1259.47 25.8963 1254.44 20.8788 1254.44 14.7285Z" fill="#4C6071"/>
<path d="M1171.81 11.3019C1171.81 7.70883 1174.77 4.85553 1178.25 4.85553C1181.85 4.85553 1184.7 7.81451 1184.7 11.3019C1184.7 14.895 1181.74 17.7483 1178.25 17.7483C1174.66 17.854 1171.81 14.895 1171.81 11.3019Z" fill="#4C6071"/>
<path d="M1086.25 14.7286C1086.25 8.25447 1091.45 3.07518 1097.94 3.07518C1104.43 3.07518 1109.63 8.25447 1109.63 14.7286C1109.63 21.2027 1104.43 26.3819 1097.94 26.3819C1091.45 26.3819 1086.25 21.2027 1086.25 14.7286Z" fill="#4C6071"/>
<path d="M1001.18 14.7285C1001.18 7.60703 1007.03 1.78035 1014.17 1.78035C1021.31 1.78035 1027.16 7.60703 1027.16 14.7285C1027.16 21.85 1021.31 27.6767 1014.17 27.6767C1007.03 27.6767 1001.18 21.85 1001.18 14.7285Z" fill="#4C6071"/>
<path d="M916.925 14.7285C916.925 7.44516 922.932 1.4566 930.237 1.4566C937.543 1.4566 943.55 7.44516 943.55 14.7285C943.55 22.0119 937.543 28.0004 930.237 28.0004C922.932 28.0004 916.925 22.0119 916.925 14.7285Z" fill="#4C6071"/>
<path d="M837.7 14.7285C837.7 9.87297 841.597 5.98857 846.467 5.98857C851.337 5.98857 855.234 9.87297 855.234 14.7285C855.234 19.5841 851.337 23.4686 846.467 23.4686C841.597 23.4686 837.7 19.5841 837.7 14.7285Z" fill="#4C6071"/>
<path d="M760.911 14.7285C760.911 13.7574 761.722 13.11 762.534 13.11C763.508 13.11 764.157 13.9193 764.157 14.7285C764.157 15.6996 763.345 16.347 762.534 16.347C761.722 16.5089 760.911 15.6996 760.911 14.7285Z" fill="#4C6071"/>
<path d="M674.543 14.7286C674.543 12.4626 676.491 10.5204 678.764 10.5204C681.037 10.5204 682.985 12.4626 682.985 14.7286C682.985 16.9945 681.037 18.9368 678.764 18.9368C676.491 18.9368 674.543 16.9945 674.543 14.7286Z" fill="#4C6071"/>
<path d="M584.604 14.7286C584.604 9.06374 589.312 4.37009 594.994 4.37009C600.676 4.37009 605.384 9.06374 605.384 14.7286C605.384 20.3934 600.676 25.0872 594.994 25.0872C589.312 25.0872 584.604 20.3934 584.604 14.7286Z" fill="#4C6071"/>
<path d="M507.652 14.7285C507.652 12.7863 509.275 11.3296 511.061 11.3296C513.009 11.3296 514.47 12.9481 514.47 14.7285C514.47 16.6707 512.847 18.1275 511.061 18.1275C509.275 18.2893 507.652 16.6707 507.652 14.7285Z" fill="#4C6071"/>
<path d="M422.583 14.7285C422.583 12.1388 424.693 10.0348 427.291 10.0348C429.888 10.0348 431.999 12.1388 431.999 14.7285C431.999 17.3181 429.888 19.4222 427.291 19.4222C424.693 19.4222 422.583 17.3181 422.583 14.7285Z" fill="#4C6071"/>
<path d="M331.345 14.7286C331.345 8.09262 336.864 2.58965 343.52 2.58965C350.177 2.58965 355.696 8.09262 355.696 14.7286C355.696 21.3645 350.177 26.8675 343.52 26.8675C336.864 26.8675 331.345 21.3645 331.345 14.7286Z" fill="#4C6071"/>
<path d="M257.964 14.1668C257.964 13.5327 258.493 13.11 259.021 13.11C259.655 13.11 260.078 13.6384 260.078 14.1668C260.078 14.8009 259.55 15.2236 259.021 15.2236C258.493 15.2236 257.964 14.8009 257.964 14.1668Z" fill="#4C6071"/>
<path d="M165.59 14.7285C165.59 9.06372 170.135 4.53188 175.818 4.53188C181.5 4.53188 186.045 9.06372 186.045 14.7285C186.045 20.3934 181.5 24.9252 175.818 24.9252C170.298 24.9252 165.59 20.3934 165.59 14.7285Z" fill="#4C6071"/>
<path d="M88.8002 14.7285C88.8002 12.9481 90.2613 11.4914 92.0471 11.4914C93.8329 11.4914 95.294 12.9481 95.294 14.7285C95.294 16.5088 93.8329 17.9655 92.0471 17.9655C90.2613 17.9655 88.8002 16.5088 88.8002 14.7285Z" fill="#4C6071"/>
<path d="M0.32196 14.7286C0.32196 10.3586 3.89355 6.79787 8.27688 6.79787C12.6602 6.79787 16.2318 10.3586 16.2318 14.7286C16.2318 19.0986 12.6602 22.6594 8.27688 22.6594C3.89355 22.6594 0.32196 19.0986 0.32196 14.7286Z" fill="#4C6071"/>
</svg>
