<svg width="1440" height="32" viewBox="0 0 1440 32" fill="none" xmlns="http://www.w3.org/2000/svg">
<path d="M1430.59 16.3003C1430.59 14.8436 1431.72 13.7107 1433.18 13.7107C1434.65 13.7107 1435.78 14.8436 1435.78 16.3003C1435.78 17.757 1434.65 18.89 1433.18 18.89C1431.72 18.89 1430.59 17.757 1430.59 16.3003Z" fill="#4C6071"/>
<path d="M1335.78 16.3004C1335.78 8.69329 1341.95 2.70482 1349.41 2.70482C1357.04 2.70482 1363.05 8.85515 1363.05 16.3004C1363.05 23.9074 1356.88 29.896 1349.41 29.896C1341.95 29.896 1335.78 23.7456 1335.78 16.3004Z" fill="#4C6071"/>
<path d="M1260.77 16.3003C1260.77 13.5488 1262.88 11.4447 1265.64 11.4447C1268.4 11.4447 1270.51 13.5488 1270.51 16.3003C1270.51 19.0518 1268.4 21.1559 1265.64 21.1559C1262.88 21.1559 1260.77 18.8899 1260.77 16.3003Z" fill="#4C6071"/>
<path d="M1169.21 16.3003C1169.21 9.34067 1174.89 3.83777 1181.71 3.83777C1188.69 3.83777 1194.21 9.50252 1194.21 16.3003C1194.21 23.26 1188.53 28.763 1181.71 28.763C1174.89 28.763 1169.21 23.26 1169.21 16.3003Z" fill="#4C6071"/>
<path d="M1087.71 16.3003C1087.71 10.6354 1092.42 5.94177 1098.1 5.94177C1103.79 5.94177 1108.49 10.4736 1108.49 16.3003C1108.49 21.9651 1103.95 26.6588 1098.1 26.6588C1092.26 26.497 1087.71 21.9651 1087.71 16.3003Z" fill="#4C6071"/>
<path d="M1010.76 16.3002C1010.76 14.5199 1012.22 13.0632 1014.01 13.0632C1015.79 13.0632 1017.25 14.5199 1017.25 16.3002C1017.25 18.0806 1015.79 19.5373 1014.01 19.5373C1012.22 19.5373 1010.76 18.0806 1010.76 16.3002Z" fill="#4C6071"/>
<path d="M928.452 15.6824C928.452 15.0484 928.98 14.52 929.614 14.52C930.248 14.52 930.777 15.0484 930.777 15.6824C930.777 16.3165 930.248 16.8449 929.614 16.8449C928.98 16.8449 928.452 16.3165 928.452 15.6824Z" fill="#4C6071"/>
<path d="M831.531 16.3003C831.531 8.04581 838.187 1.24803 846.467 1.24803C854.747 1.24803 861.565 7.88396 861.565 16.3003C861.565 24.5547 854.909 31.1907 846.467 31.1907C838.187 31.1907 831.531 24.5547 831.531 16.3003Z" fill="#4C6071"/>
<path d="M748.573 16.3003C748.573 8.53135 754.904 2.21919 762.697 2.21919C770.49 2.21919 776.821 8.53135 776.821 16.3003C776.821 24.0692 770.49 30.3814 762.697 30.3814C754.904 30.2196 748.573 24.0692 748.573 16.3003Z" fill="#4C6071"/>
<path d="M666.588 16.3003C666.588 9.50248 672.108 3.99954 678.926 3.99954C685.745 3.99954 691.265 9.50248 691.265 16.3003C691.265 23.0981 685.745 28.6011 678.926 28.6011C672.108 28.4393 666.588 22.9362 666.588 16.3003Z" fill="#4C6071"/>
<path d="M590.286 16.3003C590.286 13.7106 592.396 11.6066 594.994 11.6066C597.591 11.6066 599.702 13.7106 599.702 16.3003C599.702 18.8899 597.591 20.994 594.994 20.994C592.396 20.8322 590.286 18.728 590.286 16.3003Z" fill="#4C6071"/>
<path d="M500.022 16.3003C500.022 10.1499 505.054 5.29437 511.061 5.29437C517.23 5.29437 522.101 10.3118 522.101 16.3003C522.101 22.4507 517.068 27.3063 511.061 27.3063C505.054 27.3063 500.022 22.2888 500.022 16.3003Z" fill="#4C6071"/>
<path d="M419.011 16.3002C419.011 11.6065 422.745 7.884 427.453 7.884C432.161 7.884 435.895 11.6065 435.895 16.3002C435.895 20.994 432.161 24.7166 427.453 24.7166C422.745 24.7166 419.011 20.8321 419.011 16.3002Z" fill="#4C6071"/>
<path d="M330.695 16.3003C330.695 9.34061 336.377 3.6758 343.358 3.6758C350.339 3.6758 356.021 9.34061 356.021 16.3003C356.021 23.2599 350.339 28.9248 343.358 28.9248C336.54 28.9248 330.695 23.2599 330.695 16.3003Z" fill="#4C6071"/>
<path d="M255.529 16.3003C255.529 14.0343 257.477 12.0921 259.75 12.0921C262.023 12.0921 263.971 14.0343 263.971 16.3003C263.971 18.5662 262.023 20.5085 259.75 20.5085C257.315 20.5085 255.529 18.5662 255.529 16.3003Z" fill="#4C6071"/>
<path d="M160.557 16.3003C160.557 7.88398 167.376 1.08624 175.818 1.08624C184.259 1.08624 191.078 7.88398 191.078 16.3003C191.078 24.7166 184.259 31.5145 175.818 31.5145C167.538 31.5145 160.557 24.7166 160.557 16.3003Z" fill="#4C6071"/>
<path d="M88.8002 16.3002C88.8002 14.5199 90.2613 13.0632 92.0471 13.0632C93.8329 13.0632 95.294 14.5199 95.294 16.3002C95.294 18.0806 93.8329 19.5373 92.0471 19.5373C90.2613 19.3754 88.8002 18.0806 88.8002 16.3002Z" fill="#4C6071"/>
<path d="M3.08179 16.3003C3.08179 13.5488 5.35465 11.1211 8.27687 11.1211C11.0367 11.1211 13.4719 13.3869 13.4719 16.3003C13.4719 19.0517 11.1991 21.3177 8.27687 21.3177C5.35465 21.3177 3.08179 19.0517 3.08179 16.3003Z" fill="#4C6071"/>
</svg>
